<?xml version="1.0" encoding="UTF-8"?>
<svg width="154px" height="97px" viewBox="0 0 154 97" version="1.1" xmlns="http://www.w3.org/2000/svg" xmlns:xlink="http://www.w3.org/1999/xlink">
    <!-- Generator: Sketch 58 (84663) - https://sketch.com -->
    <title>Stack Logo</title>
    <desc>Created with Sketch.</desc>
    <g id="⚙️-Symbols" stroke="none" stroke-width="1" fill="none" fill-rule="evenodd">
        <g id="Wrapper/Main-Nav/Desktop" transform="translate(-82.000000, -26.000000)" fill="#23578C">
            <g id="Header" transform="translate(82.000000, 26.000000)">
                <g id="logos/stack/blue">
                    <g id="Stack-Logo">
                        <path d="M4.28653543,95.9196625 L18.2035276,95.9196625 L18.2035276,92.2821625 L8.61308661,92.2821625 L8.61308661,76.2432125 L4.28653543,76.2432125 L4.28653543,95.9196625 Z M29.6407559,90.4076375 C29.6407559,91.26245 29.5304094,93.68745 26.4710236,93.68745 C25.2038583,93.68745 24.0737165,93.32855 24.0737165,91.8687 C24.0737165,90.435525 25.1759685,90.0220625 26.3885669,89.7747125 C27.6011654,89.5540375 28.9798898,89.52615 29.6407559,88.9477875 L29.6407559,90.4076375 Z M24.5151024,86.05355 C24.652126,84.51125 25.6173543,83.905 27.1052126,83.905 C28.4827244,83.905 29.6407559,84.15235 29.6407559,85.8340875 C29.6407559,87.4321625 27.4083622,87.3497125 25.0110551,87.7074 C22.5858583,88.0384125 20.1606614,88.8095625 20.1606614,92.0336 C20.1606614,94.955725 22.3105984,96.304025 25.0110551,96.304025 C26.7474961,96.304025 28.5663937,95.8372125 29.8056693,94.54105 C29.8335591,95.0102875 29.9439055,95.4783125 30.0821417,95.9196625 L34.0497638,95.9196625 C33.6920472,95.3400875 33.553811,94.04635 33.553811,92.7501875 L33.553811,85.3369625 C33.553811,81.9201375 30.1367087,81.2872125 27.2980157,81.2872125 C24.1016063,81.2872125 20.8215276,82.389375 20.6008346,86.05355 L24.5151024,86.05355 Z M57.3656063,81.6727875 L53.3422047,81.6727875 L50.7229921,91.3170125 L50.6684252,91.3170125 L48.2432283,81.6727875 L44.4405197,81.6727875 L42.0698898,91.3449 L42.0141102,91.3449 L39.3961102,81.6727875 L35.2623622,81.6727875 L39.7829291,95.9196625 L43.8342205,95.9196625 L46.2594173,86.356675 L46.3139843,86.356675 L48.8495276,95.9196625 L52.8729291,95.9196625 L57.3656063,81.6727875 Z M65.8537953,89.387925 C65.7980157,94.237925 69.8771969,96.3876875 74.2316378,96.3876875 C79.5779843,96.3876875 82.4166772,93.68745 82.4166772,90.0778375 C82.4166772,85.6134125 78.0076693,84.7040375 76.574378,84.3451375 C71.6415276,83.078075 70.704189,82.8852875 70.704189,81.3696625 C70.704189,79.7158125 72.3023937,79.13745 73.6799055,79.13745 C75.7473858,79.13745 77.4280472,79.7437 77.5662835,82.1117125 L81.755811,82.1117125 C81.755811,77.5648375 77.9797795,75.7751875 73.8727087,75.7751875 C70.3185827,75.7751875 66.5146614,77.704275 66.5146614,81.72735 C66.5146614,85.420625 69.4637008,86.5494625 72.3848504,87.321825 C75.2793228,88.092975 78.2271496,88.451875 78.2271496,90.57375 C78.2271496,92.5852875 75.9122992,93.025425 74.3965512,93.025425 C72.0817008,93.025425 70.0421102,92.0057125 70.0421102,89.387925 L65.8537953,89.387925 Z M98.098,86.6876875 C97.8494173,83.0501875 94.7633543,81.2872125 91.4008189,81.2872125 C86.7711181,81.2872125 84.1252283,84.5658125 84.1252283,89.00235 C84.1252283,93.272775 87.0184882,96.304025 91.3183622,96.304025 C95.0665039,96.304025 97.6845039,94.237925 98.1804567,90.4634125 L94.4044252,90.4634125 C94.1570551,92.1997125 93.1093701,93.3564375 91.2904724,93.3564375 C88.8373858,93.3564375 88.0382835,90.90355 88.0382835,88.8653375 C88.0382835,86.7701375 88.8652756,84.2348 91.3729291,84.2348 C92.9990236,84.2348 94.0188189,85.0884 94.2674016,86.6876875 L98.098,86.6876875 Z M100.384961,95.9196625 L104.298016,95.9196625 L104.298016,88.451875 C104.298016,85.5576375 105.207465,84.373025 107.329512,84.373025 C109.148409,84.373025 109.837165,85.5309625 109.837165,87.8723 L109.837165,95.9196625 L113.751433,95.9196625 L113.751433,87.1557125 C113.751433,83.62855 112.703748,81.2872125 108.54211,81.2872125 C107.082142,81.2872125 105.373591,82.05715 104.380472,83.6564375 L104.298016,83.6564375 L104.298016,76.2432125 L100.384961,76.2432125 L100.384961,95.9196625 Z M115.735244,88.8095625 C115.735244,93.32855 118.628504,96.304025 123.093291,96.304025 C127.585969,96.304025 130.479228,93.32855 130.479228,88.8095625 C130.479228,84.2626875 127.585969,81.2872125 123.093291,81.2872125 C118.628504,81.2872125 115.735244,84.2626875 115.735244,88.8095625 L115.735244,88.8095625 Z M119.648299,88.8095625 C119.648299,86.5227875 120.447402,84.2348 123.093291,84.2348 C125.767071,84.2348 126.566173,86.5227875 126.566173,88.8095625 C126.566173,91.0696625 125.767071,93.3564375 123.093291,93.3564375 C120.447402,93.3564375 119.648299,91.0696625 119.648299,88.8095625 L119.648299,88.8095625 Z M132.022866,88.8095625 C132.022866,93.32855 134.916126,96.304025 139.380913,96.304025 C143.872378,96.304025 146.76685,93.32855 146.76685,88.8095625 C146.76685,84.2626875 143.872378,81.2872125 139.380913,81.2872125 C134.916126,81.2872125 132.022866,84.2626875 132.022866,88.8095625 L132.022866,88.8095625 Z M135.935921,88.8095625 C135.935921,86.5227875 136.735024,84.2348 139.380913,84.2348 C142.05348,84.2348 142.853795,86.5227875 142.853795,88.8095625 C142.853795,91.0696625 142.05348,93.3564375 139.380913,93.3564375 C136.735024,93.3564375 135.935921,91.0696625 135.935921,88.8095625 L135.935921,88.8095625 Z M149.41274,95.9196625 L153.325795,95.9196625 L153.325795,76.2432125 L149.41274,76.2432125 L149.41274,95.9196625 Z" id="Fill-1"></path>
                        <path d="M14.6172677,46.9827987 C19.5998346,46.9827987 20.9579449,49.6357487 21.5084646,51.6727487 C21.6382126,51.7382237 21.9935039,51.7382237 22.0905118,51.6072737 C21.8322283,49.7957987 21.5727323,47.8885362 21.5727323,46.9827987 C21.3787165,47.0143237 21.1519606,46.9827987 20.7639291,46.8857987 C19.2433307,46.5293237 16.6556457,46.2383237 15.0707795,46.2383237 C11.6403386,46.2383237 8.66462205,47.1440612 6.33522047,48.9870612 C3.97307874,50.8324862 2.25846457,53.7764362 2.25846457,57.3993862 C2.25846457,61.8310737 4.26410236,64.6440737 6.82025984,66.4240237 C9.18240157,68.0742362 11.9968425,68.6247112 14.7470157,68.6247112 C17.010937,68.6247112 19.2433307,68.1069737 19.955126,67.8790237 C20.3116299,67.7820237 20.6996614,67.6547112 21.0876929,67.5880237 C21.5412047,66.9429737 22.4142756,64.8065487 22.6410315,63.0605487 C22.5440236,62.8665487 22.1875197,62.8325987 22.0577717,62.9635487 C20.990685,65.0975487 19.1147953,67.8790237 14.8440236,67.8790237 C9.57043307,67.8790237 5.16991339,64.1287612 5.16991339,57.0744362 C5.16991339,50.2177487 9.50616535,46.9827987 14.6172677,46.9827987 Z M31.7634094,54.9089112 C27.9461496,54.9089112 24.8722126,57.8201237 24.8722126,61.8965487 C24.8722126,65.9402362 27.784874,68.5604487 31.505126,68.5604487 C35.5491417,68.5604487 38.3308425,65.6480237 38.3308425,61.6043362 C38.3308425,57.6249112 35.3878661,54.9089112 31.7634094,54.9089112 Z M35.5491417,62.1208612 C35.5491417,64.6137612 34.6760709,67.5880237 31.8288898,67.5880237 C28.9817087,67.5880237 27.655126,64.4197612 27.655126,61.4745987 C27.655126,57.9171237 29.2399921,55.8789112 31.375378,55.8789112 C34.449315,55.8789112 35.5491417,59.3733362 35.5491417,62.1208612 Z M44.3804961,49.1810612 C44.3804961,47.7587987 44.4459764,46.1413237 44.4775039,45.1713237 C44.4132362,45.0403737 44.2834882,44.9773237 44.1549528,44.9773237 C42.9896457,45.5920612 41.4690472,46.0770612 40.6602441,46.3353237 C40.4989685,46.4323237 40.4989685,46.8857987 40.6602441,46.9827987 L40.9840079,47.1755862 C41.9540866,47.7587987 41.9868268,47.9527987 41.9868268,49.8624862 L41.9868268,64.4840237 C41.9868268,66.8120237 41.9540866,67.1369737 40.757252,67.2982362 L40.0139291,67.3952362 C39.7871732,67.5577112 39.8514409,68.1069737 40.0781969,68.2039737 C41.0482756,68.1384987 42.0195669,68.1069737 43.1836614,68.1069737 C44.3162283,68.1069737 45.2547795,68.1384987 46.3218661,68.2039737 C46.548622,68.1069737 46.6128898,67.5577112 46.3873465,67.3952362 L45.6100709,67.2982362 C44.4459764,67.1369737 44.3804961,66.8120237 44.3804961,64.4840237 L44.3804961,49.1810612 Z M52.5982756,57.9498612 C52.5982756,56.3626987 52.6310157,55.6849112 52.6952835,55.1344362 C52.6625433,55.0046987 52.5655354,54.9392237 52.3715197,54.9089112 C51.6597244,55.1671737 50.398622,55.4569612 48.9095512,55.4909112 C48.6840079,55.5879112 48.6512677,56.0401737 48.8452835,56.2026487 L49.233315,56.3626987 C50.2046063,56.7846487 50.2046063,57.0744362 50.2046063,59.1138612 L50.2046063,64.5167612 C50.2046063,67.1369737 51.2716929,68.5604487 54.118874,68.5604487 C56.0275039,68.5604487 57.6123701,67.4922362 58.5836614,66.8762862 C58.7776772,66.8762862 58.874685,67.0399737 58.874685,67.3297612 L58.874685,68.6574487 C58.9389528,68.7847612 59.1014409,68.8829737 59.2627165,68.8829737 C60.3625433,68.2694487 62.2396457,67.9457112 63.500748,67.6850237 C63.7602441,67.5577112 63.7275039,66.9102362 63.5334882,66.7489737 C63.0799764,66.8459737 62.6604173,66.9102362 62.2711732,66.9102362 C61.3653622,66.9102362 61.2683543,65.9402362 61.2683543,63.3830737 L61.2683543,57.9498612 C61.2683543,56.7519112 61.3010945,55.7479612 61.3653622,55.1344362 C61.3338346,55.0046987 61.2368268,54.9392237 61.0743386,54.9089112 C60.3625433,55.2314362 58.5836614,55.4569612 57.2898189,55.4909112 C57.0303228,55.6206487 57.0303228,56.0729112 57.2570787,56.2026487 L57.6778504,56.3626987 C58.6479291,56.7519112 58.874685,56.8161737 58.874685,58.9198612 L58.874685,64.2257612 C58.874685,65.2284987 58.6479291,65.7122862 58.2271575,66.1014987 C57.5153622,66.7150237 56.4810157,67.0702862 55.6067323,67.0702862 C53.1487953,67.0702862 52.5982756,65.5837612 52.5982756,63.3515487 L52.5982756,57.9498612 Z M84.659378,64.4840237 C84.659378,66.8120237 84.6266378,67.1042362 83.4298031,67.2982362 L82.8477559,67.3952362 C82.621,67.5577112 82.6852677,68.1069737 82.9120236,68.2039737 C83.8178346,68.1384987 84.6921181,68.1069737 85.8562126,68.1069737 C86.9887795,68.1069737 87.9273307,68.1384987 88.9944173,68.2039737 C89.2211732,68.1069737 89.2854409,67.5577112 89.058685,67.3952362 L88.282622,67.2982362 C87.1185276,67.1369737 87.0530472,66.8120237 87.0530472,64.4840237 L87.0530472,58.9198612 C87.0530472,56.6876487 85.7919449,54.9089112 83.2030472,54.9089112 C81.6824488,54.9089112 80.0975827,55.6509612 78.8037402,56.5566987 C78.5127165,56.7519112 78.2859606,56.8816487 77.994937,56.8161737 C77.089126,55.4909112 76.183315,54.9089112 74.5657087,54.9089112 C73.0123701,54.9089112 71.4917717,55.6849112 70.2621969,56.5566987 C70.0354409,56.5566987 69.9069055,56.3966487 69.9069055,56.2026487 C69.9069055,55.9104362 69.9069055,55.4266487 69.9711732,54.6821737 C69.9069055,54.5196987 69.7444173,54.4554362 69.6158819,54.4554362 C68.9683543,54.9392237 67.1239921,55.7819112 66.3806693,56.0401737 C66.2181811,56.1383862 66.2181811,56.4936487 66.3479291,56.6221737 L66.6389528,56.8161737 C67.5120236,57.3993862 67.5120236,57.5606487 67.5120236,58.8228612 L67.5120236,64.4840237 C67.5120236,66.8120237 67.4804961,67.1369737 66.2836614,67.2982362 L65.5063858,67.3952362 C65.2796299,67.5577112 65.3451102,68.1069737 65.5718661,68.2039737 C66.574685,68.1384987 67.5447638,68.1069737 68.7100709,68.1069737 C69.8414252,68.1069737 70.7799764,68.1384987 71.6530472,68.2039737 C71.8798031,68.1069737 71.9452835,67.5577112 71.7185276,67.3952362 L71.1364803,67.2982362 C69.9711732,67.1042362 69.9069055,66.8120237 69.9069055,64.4840237 L69.9069055,59.4703362 C69.9069055,58.4336487 70.0681811,58.0141237 70.3919449,57.6249112 C70.8769843,57.0441237 71.7827953,56.4596987 73.109378,56.4596987 C75.1150157,56.4596987 76.0863071,57.6249112 76.0863071,59.7916487 L76.0863071,64.4840237 C76.0863071,66.8120237 76.0535669,67.1042362 74.8567323,67.2982362 L74.274685,67.3952362 C74.0479291,67.5577112 74.1121969,68.1069737 74.3389528,68.2039737 C75.2447638,68.1384987 76.1178346,68.1069737 77.2831417,68.1069737 C78.4157087,68.1069737 79.3530472,68.1384987 80.3243386,68.2039737 C80.5498819,68.1069737 80.6153622,67.5577112 80.3886063,67.3952362 L79.7095512,67.2982362 C78.5442441,67.1369737 78.4799764,66.8120237 78.4799764,64.4840237 L78.4799764,59.5345987 C78.4799764,58.4021237 78.5769843,58.0771737 78.9650157,57.5933862 C79.4185276,57.0113862 80.4213465,56.4596987 81.6509213,56.4596987 C83.6880866,56.4596987 84.659378,57.5933862 84.659378,59.7916487 L84.659378,64.4840237 Z M92.5521811,65.2927612 C92.5521811,66.9732862 92.5206535,67.5880237 92.4879134,68.0414987 C92.5521811,68.1724487 92.6819291,68.2354987 92.8116772,68.2354987 C92.8759449,68.2354987 92.908685,68.2354987 92.9414252,68.2039737 C93.1027008,67.9760237 93.3609843,67.7189737 93.6204803,67.7189737 C93.8787638,67.7189737 94.2995354,67.9129737 94.9785906,68.1384987 C95.6261181,68.3324987 96.5319291,68.5604487 97.7287638,68.5604487 C102.063803,68.5604487 105.17048,65.5498112 105.17048,61.2490737 C105.17048,57.6903862 102.678591,54.9089112 98.9910787,54.9089112 C97.405,54.9089112 96.1111575,55.4909112 95.2708268,55.9759112 C95.076811,55.9759112 94.947063,55.8461737 94.947063,55.2956987 L94.947063,49.1810612 C94.947063,47.7587987 95.0113307,46.3025862 95.076811,45.1713237 C95.0113307,45.0403737 94.8815827,44.9773237 94.7530472,44.9773237 C93.5234724,45.6235862 91.9701339,46.0443237 91.226811,46.3353237 C91.0643228,46.4323237 91.0643228,46.8857987 91.226811,46.9827987 L91.5493622,47.1755862 C92.5206535,47.7587987 92.5521811,47.9527987 92.5521811,49.8624862 L92.5521811,65.2927612 Z M94.947063,58.6615987 C94.947063,57.3993862 95.0113307,57.0441237 95.3350945,56.8161737 C95.7873937,56.5263862 96.5646693,56.2996487 97.534748,56.2996487 C100.738433,56.2996487 102.453047,58.8859112 102.453047,62.2178612 C102.453047,65.0005487 101.255,67.5880237 98.2138031,67.5880237 C97.1794567,67.5880237 96.3051732,67.2012362 95.7558661,66.5210237 C95.2053465,65.8432362 94.947063,64.8392862 94.947063,63.7080237 L94.947063,58.6615987 Z M109.796543,64.4840237 C109.796543,66.8120237 109.763803,67.1369737 108.566969,67.2982362 L107.887913,67.3952362 C107.661157,67.5577112 107.725425,68.1069737 107.952181,68.2039737 C108.857992,68.1384987 109.829283,68.1069737 110.993378,68.1069737 C112.125945,68.1069737 113.064496,68.1384987 114.034575,68.2039737 C114.261331,68.1069737 114.325598,67.5577112 114.098843,67.3952362 L113.419787,67.2982362 C112.255693,67.1369737 112.190213,66.8120237 112.190213,64.4840237 L112.190213,58.6615987 C112.190213,57.3351237 112.255693,55.7819112 112.319961,54.6482237 C112.28722,54.5196987 112.158685,54.4554362 111.996197,54.4554362 C111.252874,54.9392237 109.408512,55.7819112 108.663976,56.0401737 C108.502701,56.1383862 108.502701,56.4936487 108.631236,56.6221737 L108.923472,56.8161737 C109.796543,57.3993862 109.796543,57.5606487 109.796543,58.8228612 L109.796543,64.4840237 Z M110.86363,47.9200612 C109.893551,47.9200612 109.117488,48.6002737 109.117488,49.6672737 C109.117488,50.5414862 109.763803,51.2847487 110.766622,51.2847487 C111.672433,51.2847487 112.481236,50.7682237 112.481236,49.6017987 C112.481236,48.6972737 111.834921,47.9200612 110.86363,47.9200612 Z M119.727724,62.8022862 C117.657819,63.5443362 117.043031,64.2888112 117.043031,65.5498112 C117.043031,66.4567612 117.431063,67.2654987 118.04585,67.8159737 C118.59637,68.3009737 119.372433,68.5604487 120.310984,68.5604487 C121.216795,68.5604487 121.928591,68.1384987 122.640386,67.7517112 C123.286701,67.3952362 123.674732,67.1042362 123.901488,67.1042362 C124.095504,67.1042362 124.28952,67.3637112 124.419268,67.5577112 C124.969787,68.2694487 125.74585,68.5604487 126.521913,68.5604487 C128.107992,68.5604487 129.239346,67.2982362 129.239346,67.1369737 C129.239346,66.9102362 129.142339,66.7150237 129.013803,66.7150237 C128.916795,66.7150237 128.754307,66.8459737 128.593031,66.9429737 C128.399016,67.0399737 128.107992,67.1369737 127.784228,67.1369737 C126.521913,67.1369737 126.23089,65.8092862 126.29637,64.3227612 L126.490386,58.6919112 C126.587394,56.2656987 125.454827,54.9089112 123.125425,54.9089112 C120.763283,54.9089112 117.107299,57.2053862 117.107299,58.8859112 C117.107299,59.1781237 117.269787,59.3393862 117.560811,59.3393862 C118.04585,59.3393862 118.918921,59.1138612 119.405173,58.7258612 C119.663457,58.5306487 119.696197,58.1438612 119.727724,57.6249112 C119.793205,56.6221737 120.893031,56.1686987 121.798843,56.1686987 C123.80448,56.1686987 124.192512,57.7861737 124.160984,58.9829112 L124.128244,60.4730737 C124.128244,60.9568612 124.063976,61.2490737 123.577724,61.4091237 L119.727724,62.8022862 Z M119.533709,65.1618112 C119.533709,63.9008112 120.47226,63.4170237 122.38089,62.7695487 C122.962937,62.5743362 123.513457,62.4458112 123.707472,62.4458112 C123.901488,62.4458112 124.031236,62.5100737 124.031236,62.8665487 L123.966969,64.7750237 C123.934228,65.4528112 123.934228,65.9062862 123.546197,66.2954987 C123.222433,66.6180237 122.219614,67.1042362 121.572087,67.1042362 C119.922953,67.1042362 119.533709,65.7122862 119.533709,65.1618112 Z" id="FIll"></path>
                        <polygon id="Fill-8" points="5.89444094 35.8981237 39.5925512 35.8981237 39.5925512 33.1227112 5.89444094 33.1227112"></polygon>
                        <path d="M41.1061165,20.9808575 C38.9173764,24.7590075 36.7698646,28.4062075 34.0863843,28.4062075 C33.3163843,28.4062075 31.9546362,27.677495 32.4833291,25.66717 L35.0103843,23.1100075 C35.1849984,22.9184325 35.3147465,22.6953325 35.1959118,22.4043325 L33.5904315,19.020245 C33.498274,18.821395 33.320022,18.8323075 33.1320693,19.020245 L29.7489197,22.40797 C29.5621795,22.5862075 29.4833606,22.84447 29.6046205,23.1197075 L30.6729197,25.62352 C30.258211,27.2713075 29.186274,28.4765325 27.8766677,28.39287 C25.4526835,28.22797 23.4846362,23.618045 26.4057858,17.109345 C26.894463,16.013245 27.0799906,15.096595 27.030274,14.30362 C32.5657858,11.78647 39.682526,9.0765325 42.3963213,12.5006325 C44.0212031,14.553395 43.2633291,17.264545 41.1061165,20.9808575 M17.6095969,28.39287 C16.3060535,28.4765325 15.2280535,27.2713075 14.8145575,25.62352 L15.8852819,23.1197075 C16.0029039,22.84447 15.9252976,22.5862075 15.7434079,22.40797 L12.3590457,19.020245 C12.1674551,18.8323075 11.986778,18.821395 11.8970457,19.020245 L10.2939906,22.4043325 C10.1727307,22.6953325 10.3024787,22.9184325 10.4758803,23.1100075 L13.0065732,25.66717 C13.5352661,27.677495 12.1698803,28.4062075 11.4010929,28.4062075 C8.7188252,28.4062075 6.57252598,24.7590075 4.38136063,20.9808575 C2.22778583,17.264545 1.46627402,14.553395 3.0923685,12.5006325 C5.80495118,9.0765325 12.9253291,11.78647 18.4596283,14.30362 C18.4050614,15.096595 18.5942268,16.013245 19.0816913,17.109345 C22.0064787,23.618045 20.0372189,28.22797 17.6095969,28.39287 M43.7811087,10.7352325 C40.1760535,7.20322 33.8390142,9.4136075 26.6604315,11.7076575 C26.2554236,11.837395 25.8419276,11.725845 25.4757228,11.43242 C25.1628724,11.16567 24.8281953,10.9486325 24.5044315,10.75342 C25.5181638,10.15687 26.1960063,9.05107 26.1960063,7.787645 C26.1960063,6.06347 24.9288409,4.63757 23.2784945,4.3817325 L24.5492976,2.748495 C24.6705575,2.583595 24.6705575,2.3156325 24.5492976,2.1531575 L22.9717071,0.1185825 C22.9074394,0.0434075 22.8249827,-0.0002425 22.7473764,-0.0002425 C22.6612819,-0.0002425 22.5776126,0.0434075 22.5157701,0.1185825 L20.9442425,2.1531575 C20.8181323,2.3156325 20.8181323,2.583595 20.9442425,2.748495 L22.2077701,4.3817325 C20.5586362,4.63757 19.2938961,6.06347 19.2938961,7.787645 C19.2938961,9.05107 19.9717386,10.15687 20.9866835,10.75342 C20.6592819,10.9486325 20.3246047,11.16567 20.0117543,11.43242 C19.6467622,11.725845 19.2344787,11.837395 18.8282583,11.7076575 C11.648463,9.4136075 5.31142362,7.20322 1.7112189,10.7352325 C-2.6044189,14.9620075 2.41452598,21.8126325 3.99939213,24.621995 C5.10528189,26.5995825 5.89104567,28.899695 5.89104567,30.728145 L22.7473764,30.728145 L39.5988567,30.728145 C39.5988567,28.899695 40.3821953,26.5995825 41.4917228,24.621995 C43.0717386,21.8126325 48.0943213,14.9620075 43.7811087,10.7352325" id="Fill-10"></path>
                    </g>
                </g>
            </g>
        </g>
    </g>
</svg>